<svg width="234" height="92" viewBox="0 0 234 92" fill="none" xmlns="http://www.w3.org/2000/svg">
<path d="M30.584 52.7227H33.3184C34.4382 52.7227 35.2975 53.0091 35.8965 53.582C36.502 54.1549 36.8047 55.0013 36.8047 56.1211C36.8047 58.0547 36.0983 59.1615 34.6855 59.4414V59.5195C35.4993 59.6888 36.1048 60.0534 36.502 60.6133C36.8991 61.1667 37.0977 61.9414 37.0977 62.9375C37.0977 64.2135 36.8145 65.2096 36.248 65.9258C35.6816 66.6419 34.8874 67 33.8652 67H30.584V52.7227ZM31.541 59.0801H33.3379C34.2298 59.0801 34.8646 58.8359 35.2422 58.3477C35.6263 57.8529 35.8184 57.1042 35.8184 56.1016C35.8184 55.2943 35.6068 54.6758 35.1836 54.2461C34.7669 53.8164 34.1452 53.6016 33.3184 53.6016H31.541V59.0801ZM31.541 59.959V66.1211H33.7383C35.3138 66.1211 36.1016 65.0534 36.1016 62.918C36.1016 61.9674 35.8704 61.2383 35.4082 60.7305C34.946 60.2161 34.2982 59.959 33.4648 59.959H31.541ZM38.5039 71.8047C38.2305 71.8047 38.0124 71.7493 37.8496 71.6387V70.7598C38.0579 70.8639 38.263 70.916 38.4648 70.916C38.7708 70.916 38.9857 70.7663 39.1094 70.4668C39.2396 70.1738 39.3047 69.7181 39.3047 69.0996V56.4043H40.2324V68.9629C40.2324 69.9329 40.0924 70.6491 39.8125 71.1113C39.5326 71.5736 39.0964 71.8047 38.5039 71.8047ZM39.168 53.4648C39.168 53.1719 39.2266 52.944 39.3438 52.7812C39.4674 52.6185 39.6237 52.5371 39.8125 52.5371C39.9883 52.5371 40.1283 52.6185 40.2324 52.7812C40.3366 52.944 40.3887 53.1719 40.3887 53.4648C40.3887 53.7448 40.3366 53.9694 40.2324 54.1387C40.1283 54.3014 39.9883 54.3828 39.8125 54.3828C39.6237 54.3828 39.4674 54.3014 39.3438 54.1387C39.2266 53.9694 39.168 53.7448 39.168 53.4648ZM49.041 61.6777C49.041 63.4616 48.7578 64.8288 48.1914 65.7793C47.6315 66.7233 46.8275 67.1953 45.7793 67.1953C44.7441 67.1953 43.9499 66.7233 43.3965 65.7793C42.8496 64.8288 42.5762 63.4616 42.5762 61.6777C42.5762 58.0254 43.6569 56.1992 45.8184 56.1992C46.834 56.1992 47.625 56.6777 48.1914 57.6348C48.7578 58.5918 49.041 59.9395 49.041 61.6777ZM43.543 61.6777C43.543 63.2077 43.7253 64.3633 44.0898 65.1445C44.4544 65.9258 45.0241 66.3164 45.7988 66.3164C47.3158 66.3164 48.0742 64.7702 48.0742 61.6777C48.0742 58.6113 47.3158 57.0781 45.7988 57.0781C45.0046 57.0781 44.4284 57.4622 44.0703 58.2305C43.7188 58.9987 43.543 60.1478 43.543 61.6777ZM43.709 53.4355C43.709 53.1556 43.7708 52.9538 43.8945 52.8301C44.0247 52.7064 44.1712 52.6445 44.334 52.6445C44.4837 52.6445 44.6204 52.7064 44.7441 52.8301C44.8678 52.9538 44.9297 53.1556 44.9297 53.4355C44.9297 53.722 44.8678 53.9303 44.7441 54.0605C44.6204 54.1908 44.4837 54.2559 44.334 54.2559C44.1712 54.2559 44.0247 54.1908 43.8945 54.0605C43.7708 53.9303 43.709 53.722 43.709 53.4355ZM46.6875 53.4355C46.6875 53.1556 46.7493 52.9538 46.873 52.8301C47.0033 52.7064 47.1432 52.6445 47.293 52.6445C47.4557 52.6445 47.599 52.7064 47.7227 52.8301C47.8464 52.9538 47.9082 53.1556 47.9082 53.4355C47.9082 53.722 47.8464 53.9303 47.7227 54.0605C47.599 54.1908 47.4557 54.2559 47.293 54.2559C47.1432 54.2559 47.0033 54.1908 46.873 54.0605C46.7493 53.9303 46.6875 53.722 46.6875 53.4355ZM54.3145 56.1992C54.6465 56.1992 54.9557 56.2448 55.2422 56.3359L55.0176 57.2637C54.7832 57.166 54.5423 57.1172 54.2949 57.1172C53.9368 57.1172 53.6016 57.3027 53.2891 57.6738C52.9831 58.0384 52.7422 58.5495 52.5664 59.207C52.3906 59.8646 52.3027 60.5905 52.3027 61.3848V67H51.375V56.4043H52.1367L52.2344 58.2598H52.3027C52.7975 56.8861 53.4681 56.1992 54.3145 56.1992ZM61.6289 67V59.6953C61.6289 57.9375 61.1081 57.0586 60.0664 57.0586C59.2721 57.0586 58.6895 57.3874 58.3184 58.0449C57.9538 58.7025 57.7715 59.7474 57.7715 61.1797V67H56.8438V56.4043H57.625L57.7031 57.8789H57.791C58.0124 57.3451 58.3314 56.9316 58.748 56.6387C59.1647 56.3457 59.6107 56.1992 60.0859 56.1992C60.9062 56.1992 61.5215 56.4759 61.9316 57.0293C62.3418 57.5762 62.5469 58.4583 62.5469 59.6758V67H61.6289ZM69.5 64.3438C69.5 65.2357 69.2656 65.9355 68.7969 66.4434C68.3281 66.9447 67.651 67.1953 66.7656 67.1953C66.2839 67.1953 65.8607 67.1335 65.4961 67.0098C65.1315 66.8861 64.8483 66.7493 64.6465 66.5996V65.5156C64.8874 65.7565 65.2064 65.9518 65.6035 66.1016C66.0007 66.2448 66.4076 66.3164 66.8242 66.3164C67.3711 66.3164 67.8008 66.1374 68.1133 65.7793C68.4258 65.4212 68.582 64.9427 68.582 64.3438C68.582 63.875 68.4681 63.4811 68.2402 63.1621C68.0189 62.8366 67.5924 62.4688 66.9609 62.0586C66.2383 61.6029 65.7435 61.2383 65.4766 60.9648C65.2161 60.6914 65.0111 60.3854 64.8613 60.0469C64.7181 59.7083 64.6465 59.3047 64.6465 58.8359C64.6465 58.0742 64.9036 57.446 65.418 56.9512C65.9323 56.4499 66.5866 56.1992 67.3809 56.1992C68.2337 56.1992 68.9466 56.401 69.5195 56.8047L69.041 57.6152C68.5072 57.2572 67.9408 57.0781 67.3418 57.0781C66.7949 57.0781 66.3587 57.2409 66.0332 57.5664C65.7077 57.8854 65.5449 58.3086 65.5449 58.8359C65.5449 59.3047 65.6556 59.6986 65.877 60.0176C66.0983 60.3301 66.5671 60.7109 67.2832 61.1602C67.9863 61.6224 68.4681 61.9935 68.7285 62.2734C68.9889 62.5469 69.181 62.8529 69.3047 63.1914C69.4349 63.5234 69.5 63.9076 69.5 64.3438ZM80.7402 67H75.5645V52.7227H80.7402V53.6406H76.5215V59.0605H80.5059V59.9785H76.5215V66.082H80.7402V67ZM84.041 67H83.1133V51.8047H84.041V67ZM89.8906 67.1953C88.7708 67.1953 87.9082 66.7201 87.3027 65.7695C86.7038 64.8125 86.4043 63.4811 86.4043 61.7754C86.4043 59.9655 86.6712 58.5853 87.2051 57.6348C87.7454 56.6777 88.5202 56.1992 89.5293 56.1992C90.4082 56.1992 91.1016 56.6191 91.6094 57.459C92.1172 58.2923 92.3711 59.4186 92.3711 60.8379V61.6973H87.3516C87.3646 63.2402 87.5827 64.3958 88.0059 65.1641C88.429 65.9323 89.0703 66.3164 89.9297 66.3164C90.5938 66.3164 91.2936 66.0983 92.0293 65.6621V66.5605C91.3522 66.9837 90.6393 67.1953 89.8906 67.1953ZM89.4707 57.0391C88.1947 57.0391 87.4948 58.3118 87.3711 60.8574H91.4434C91.4434 59.6921 91.2643 58.7643 90.9062 58.0742C90.5547 57.3841 90.0762 57.0391 89.4707 57.0391ZM95.6816 61.7559L96.2773 60.6816L98.8945 56.4043H99.9004L97.459 60.3008L100.115 67H99.1387L96.834 61.1602L95.6621 62.7031V67H94.7344V51.8047H95.6621V59.9785L95.5938 61.7559H95.6816ZM103.631 66.3359C103.917 66.3359 104.171 66.2969 104.393 66.2188V67C104.106 67.1302 103.738 67.1953 103.289 67.1953C102.195 67.1953 101.648 66.3783 101.648 64.7441V57.2246H100.691V56.6777L101.629 56.4043L101.932 53.8848H102.576V56.4043H104.256V57.2246H102.576V64.4805C102.576 65.1966 102.654 65.6849 102.811 65.9453C102.967 66.2057 103.24 66.3359 103.631 66.3359ZM109.021 56.1992C109.354 56.1992 109.663 56.2448 109.949 56.3359L109.725 57.2637C109.49 57.166 109.249 57.1172 109.002 57.1172C108.644 57.1172 108.309 57.3027 107.996 57.6738C107.69 58.0384 107.449 58.5495 107.273 59.207C107.098 59.8646 107.01 60.5905 107.01 61.3848V67H106.082V56.4043H106.844L106.941 58.2598H107.01C107.505 56.8861 108.175 56.1992 109.021 56.1992ZM112.479 67H111.551V56.4043H112.479V67ZM111.414 53.4648C111.414 53.1719 111.473 52.944 111.59 52.7812C111.714 52.6185 111.87 52.5371 112.059 52.5371C112.234 52.5371 112.374 52.6185 112.479 52.7812C112.583 52.944 112.635 53.1719 112.635 53.4648C112.635 53.7448 112.583 53.9694 112.479 54.1387C112.374 54.3014 112.234 54.3828 112.059 54.3828C111.87 54.3828 111.714 54.3014 111.59 54.1387C111.473 53.9694 111.414 53.7448 111.414 53.4648ZM119.48 64.3438C119.48 65.2357 119.246 65.9355 118.777 66.4434C118.309 66.9447 117.632 67.1953 116.746 67.1953C116.264 67.1953 115.841 67.1335 115.477 67.0098C115.112 66.8861 114.829 66.7493 114.627 66.5996V65.5156C114.868 65.7565 115.187 65.9518 115.584 66.1016C115.981 66.2448 116.388 66.3164 116.805 66.3164C117.352 66.3164 117.781 66.1374 118.094 65.7793C118.406 65.4212 118.562 64.9427 118.562 64.3438C118.562 63.875 118.449 63.4811 118.221 63.1621C117.999 62.8366 117.573 62.4688 116.941 62.0586C116.219 61.6029 115.724 61.2383 115.457 60.9648C115.197 60.6914 114.992 60.3854 114.842 60.0469C114.699 59.7083 114.627 59.3047 114.627 58.8359C114.627 58.0742 114.884 57.446 115.398 56.9512C115.913 56.4499 116.567 56.1992 117.361 56.1992C118.214 56.1992 118.927 56.401 119.5 56.8047L119.021 57.6152C118.488 57.2572 117.921 57.0781 117.322 57.0781C116.775 57.0781 116.339 57.2409 116.014 57.5664C115.688 57.8854 115.525 58.3086 115.525 58.8359C115.525 59.3047 115.636 59.6986 115.857 60.0176C116.079 60.3301 116.548 60.7109 117.264 61.1602C117.967 61.6224 118.449 61.9935 118.709 62.2734C118.969 62.5469 119.161 62.8529 119.285 63.1914C119.415 63.5234 119.48 63.9076 119.48 64.3438ZM124.354 67.1953C123.292 67.1953 122.492 66.7363 121.951 65.8184C121.417 64.8939 121.15 63.5397 121.15 61.7559C121.15 59.946 121.421 58.569 121.961 57.625C122.508 56.6745 123.312 56.1992 124.373 56.1992C125.031 56.1992 125.577 56.3197 126.014 56.5605L125.652 57.3809C125.216 57.179 124.816 57.0781 124.451 57.0781C122.895 57.0781 122.117 58.6309 122.117 61.7363C122.117 64.8158 122.895 66.3555 124.451 66.3555C124.913 66.3555 125.415 66.2513 125.955 66.043V66.8242C125.74 66.9414 125.477 67.0326 125.164 67.0977C124.852 67.1628 124.581 67.1953 124.354 67.1953ZM132.625 67V59.6953C132.625 58.7383 132.498 58.0612 132.244 57.6641C131.997 57.2604 131.59 57.0586 131.023 57.0586C130.275 57.0586 129.712 57.3906 129.334 58.0547C128.956 58.7188 128.768 59.7669 128.768 61.1992V67H127.84V51.8047H128.768V56.7363C128.768 57.1855 128.755 57.5599 128.729 57.8594H128.807C129.015 57.332 129.327 56.9251 129.744 56.6387C130.167 56.3457 130.607 56.1992 131.062 56.1992C131.961 56.1992 132.599 56.4922 132.977 57.0781C133.354 57.6641 133.543 58.5365 133.543 59.6953V67H132.625ZM139.344 67.1953C138.224 67.1953 137.361 66.7201 136.756 65.7695C136.157 64.8125 135.857 63.4811 135.857 61.7754C135.857 59.9655 136.124 58.5853 136.658 57.6348C137.199 56.6777 137.973 56.1992 138.982 56.1992C139.861 56.1992 140.555 56.6191 141.062 57.459C141.57 58.2923 141.824 59.4186 141.824 60.8379V61.6973H136.805C136.818 63.2402 137.036 64.3958 137.459 65.1641C137.882 65.9323 138.523 66.3164 139.383 66.3164C140.047 66.3164 140.747 66.0983 141.482 65.6621V66.5605C140.805 66.9837 140.092 67.1953 139.344 67.1953ZM138.924 57.0391C137.648 57.0391 136.948 58.3118 136.824 60.8574H140.896C140.896 59.6921 140.717 58.7643 140.359 58.0742C140.008 57.3841 139.529 57.0391 138.924 57.0391ZM153.504 67L152.244 61.8242H148.777L147.537 67H146.541L149.979 52.7227H150.965L154.48 67H153.504ZM152.02 60.8574L150.76 55.5352C150.63 54.9362 150.529 54.3698 150.457 53.8359C150.398 54.4023 150.307 54.9688 150.184 55.5352L148.963 60.8574H152.02ZM159.314 67.1953C158.781 67.1953 158.292 67.0488 157.85 66.7559C157.413 66.4564 157.081 66.0495 156.854 65.5352H156.766L156.834 66.6973V71.8047H155.906V56.4043H156.668L156.766 57.8594H156.854C157.114 57.3255 157.446 56.9154 157.85 56.6289C158.26 56.3424 158.706 56.1992 159.188 56.1992C161.258 56.1992 162.293 58.0254 162.293 61.6777C162.293 63.4421 162.039 64.8027 161.531 65.7598C161.023 66.7168 160.285 67.1953 159.314 67.1953ZM159.129 57.0781C158.354 57.0781 157.778 57.4199 157.4 58.1035C157.023 58.7871 156.834 59.8581 156.834 61.3164V61.6191C156.834 63.2467 157.026 64.4447 157.41 65.2129C157.794 65.9746 158.38 66.3555 159.168 66.3555C159.897 66.3555 160.438 65.9779 160.789 65.2227C161.147 64.4609 161.326 63.2793 161.326 61.6777C161.326 60.1478 161.16 58.9987 160.828 58.2305C160.496 57.4622 159.93 57.0781 159.129 57.0781ZM168.045 67.1953C167.511 67.1953 167.023 67.0488 166.58 66.7559C166.144 66.4564 165.812 66.0495 165.584 65.5352H165.496L165.564 66.6973V71.8047H164.637V56.4043H165.398L165.496 57.8594H165.584C165.844 57.3255 166.176 56.9154 166.58 56.6289C166.99 56.3424 167.436 56.1992 167.918 56.1992C169.988 56.1992 171.023 58.0254 171.023 61.6777C171.023 63.4421 170.77 64.8027 170.262 65.7598C169.754 66.7168 169.015 67.1953 168.045 67.1953ZM167.859 57.0781C167.085 57.0781 166.508 57.4199 166.131 58.1035C165.753 58.7871 165.564 59.8581 165.564 61.3164V61.6191C165.564 63.2467 165.757 64.4447 166.141 65.2129C166.525 65.9746 167.111 66.3555 167.898 66.3555C168.628 66.3555 169.168 65.9779 169.52 65.2227C169.878 64.4609 170.057 63.2793 170.057 61.6777C170.057 60.1478 169.891 58.9987 169.559 58.2305C169.227 57.4622 168.66 57.0781 167.859 57.0781ZM177.469 67L177.352 65.5156H177.312C176.805 66.6354 176.036 67.1953 175.008 67.1953C174.318 67.1953 173.761 66.9219 173.338 66.375C172.921 65.8216 172.713 65.0827 172.713 64.1582C172.713 63.1491 173.016 62.3516 173.621 61.7656C174.227 61.1732 175.076 60.8509 176.17 60.7988L177.312 60.7402V59.8613C177.312 58.8717 177.189 58.1523 176.941 57.7031C176.694 57.2474 176.284 57.0195 175.711 57.0195C175.105 57.0195 174.487 57.2181 173.855 57.6152L173.455 56.8828C174.191 56.4271 174.962 56.1992 175.77 56.1992C176.642 56.1992 177.27 56.4759 177.654 57.0293C178.038 57.5762 178.23 58.4941 178.23 59.7832V67H177.469ZM175.213 66.4043C175.877 66.4043 176.391 66.0788 176.756 65.4277C177.127 64.7702 177.312 63.8424 177.312 62.6445V61.541L176.209 61.5996C175.356 61.6452 174.721 61.8828 174.305 62.3125C173.895 62.7357 173.689 63.3574 173.689 64.1777C173.689 64.946 173.826 65.5091 174.1 65.8672C174.373 66.2253 174.744 66.4043 175.213 66.4043ZM183.963 56.1992C184.295 56.1992 184.604 56.2448 184.891 56.3359L184.666 57.2637C184.432 57.166 184.191 57.1172 183.943 57.1172C183.585 57.1172 183.25 57.3027 182.938 57.6738C182.632 58.0384 182.391 58.5495 182.215 59.207C182.039 59.8646 181.951 60.5905 181.951 61.3848V67H181.023V56.4043H181.785L181.883 58.2598H181.951C182.446 56.8861 183.117 56.1992 183.963 56.1992ZM190.594 67L190.477 65.5156H190.438C189.93 66.6354 189.161 67.1953 188.133 67.1953C187.443 67.1953 186.886 66.9219 186.463 66.375C186.046 65.8216 185.838 65.0827 185.838 64.1582C185.838 63.1491 186.141 62.3516 186.746 61.7656C187.352 61.1732 188.201 60.8509 189.295 60.7988L190.438 60.7402V59.8613C190.438 58.8717 190.314 58.1523 190.066 57.7031C189.819 57.2474 189.409 57.0195 188.836 57.0195C188.23 57.0195 187.612 57.2181 186.98 57.6152L186.58 56.8828C187.316 56.4271 188.087 56.1992 188.895 56.1992C189.767 56.1992 190.395 56.4759 190.779 57.0293C191.163 57.5762 191.355 58.4941 191.355 59.7832V67H190.594ZM188.338 66.4043C189.002 66.4043 189.516 66.0788 189.881 65.4277C190.252 64.7702 190.438 63.8424 190.438 62.6445V61.541L189.334 61.5996C188.481 61.6452 187.846 61.8828 187.43 62.3125C187.02 62.7357 186.814 63.3574 186.814 64.1777C186.814 64.946 186.951 65.5091 187.225 65.8672C187.498 66.2253 187.869 66.4043 188.338 66.4043ZM196.092 66.3359C196.378 66.3359 196.632 66.2969 196.854 66.2188V67C196.567 67.1302 196.199 67.1953 195.75 67.1953C194.656 67.1953 194.109 66.3783 194.109 64.7441V57.2246H193.152V56.6777L194.09 56.4043L194.393 53.8848H195.037V56.4043H196.717V57.2246H195.037V64.4805C195.037 65.1966 195.115 65.6849 195.271 65.9453C195.428 66.2057 195.701 66.3359 196.092 66.3359ZM201.551 67.1953C200.431 67.1953 199.568 66.7201 198.963 65.7695C198.364 64.8125 198.064 63.4811 198.064 61.7754C198.064 59.9655 198.331 58.5853 198.865 57.6348C199.406 56.6777 200.18 56.1992 201.189 56.1992C202.068 56.1992 202.762 56.6191 203.27 57.459C203.777 58.2923 204.031 59.4186 204.031 60.8379V61.6973H199.012C199.025 63.2402 199.243 64.3958 199.666 65.1641C200.089 65.9323 200.73 66.3164 201.59 66.3164C202.254 66.3164 202.954 66.0983 203.689 65.6621V66.5605C203.012 66.9837 202.299 67.1953 201.551 67.1953ZM201.131 57.0391C199.855 57.0391 199.155 58.3118 199.031 60.8574H203.104C203.104 59.6921 202.924 58.7643 202.566 58.0742C202.215 57.3841 201.736 57.0391 201.131 57.0391Z" fill="#0F233C"/>
<path d="M160.163 10.66C159.206 9.70667 158.163 9.1 157.554 8.75333C157.467 8.66667 157.38 8.58 157.38 8.40667C157.38 7.62667 156.945 6.93333 156.25 6.58667C154.076 5.46 151.902 4.94 150.945 4.76667C150.597 4.07333 149.815 3.55333 148.945 3.55333C148.423 3.55333 147.902 3.72667 147.554 4.07333C147.554 4.07333 147.554 4.07333 147.467 4.07333H139.38C134.249 4.07333 131.293 5.2 129.901 5.80667C129.727 5.89333 129.64 5.89333 129.467 5.80667C126.945 4.42 117.988 0 106.857 0C98.5095 0 90.1615 5.98 87.9006 13.52C87.031 16.2933 86.6832 20.6267 89.205 25.6533C87.4658 27.6467 86.6832 30.2467 87.118 32.76L87.9876 32.5867L87.118 32.8467C87.7267 36.4 90.8572 38.9133 94.5094 38.9133H96.6834C97.8138 38.9133 98.5964 38.3933 98.7704 37.5267C98.8573 37.0933 98.9443 36.7467 98.9443 36.4C99.9008 37.0933 100.944 37.8733 102.075 38.5667C102.423 38.74 102.77 38.9133 103.118 38.9133H108.597C109.814 38.9133 110.858 38.22 111.205 37.0933C111.64 35.9667 111.292 34.7533 110.336 34.06C109.988 33.8 109.64 33.54 109.292 33.3667C109.292 33.3667 109.292 33.28 109.205 33.28C110.423 33.1933 111.379 33.1067 112.075 33.02C112.249 35.1 113.205 36.92 115.118 38.5667C115.466 38.8267 115.901 39 116.336 39H123.466C124.075 39 124.684 38.6533 125.032 38.1333C125.38 37.6133 125.38 36.92 125.119 36.3133C124.336 34.6667 122.684 33.3667 121.553 32.6733C122.597 31.5467 123.901 30.5067 125.38 29.4667C124.945 31.98 125.206 35.7067 129.293 38.6533C129.64 38.9133 129.988 39 130.423 39H136.597C137.901 39 138.945 38.1333 139.206 36.8333C139.467 35.5333 138.858 34.4067 137.641 33.8867L137.554 33.8C136.162 33.1933 135.032 31.8933 134.597 30.3333C134.162 28.86 134.423 27.3867 135.206 26.3467C136.945 24.0933 137.293 21.9267 137.38 20.9733C138.075 20.8 138.771 20.6267 139.467 20.54C141.902 20.02 144.51 19.5 146.336 17.94C149.119 15.5133 155.38 16.0333 157.206 16.2067C157.989 16.2933 158.771 15.9467 159.206 15.2533C159.38 14.9067 159.728 14.56 160.076 14.2133C161.293 13.26 161.293 11.6133 160.163 10.66ZM97.2051 37.18C97.2051 37.18 97.1182 37.2667 96.7703 37.2667H94.5964C91.8137 37.2667 89.3789 35.2733 88.9441 32.6733L88.0745 32.8467L88.9441 32.5867C88.6832 30.7667 89.118 28.9467 90.2485 27.3867C91.6398 29.5533 93.5529 31.8933 96.2486 34.32C97.2051 35.1867 97.553 35.7933 97.2051 37.18ZM134.075 25.3933C132.945 26.8667 132.597 28.86 133.206 30.8533C133.814 32.9333 135.293 34.6667 137.119 35.4467H137.206C137.815 35.7067 137.728 36.3133 137.728 36.4867C137.641 36.8333 137.38 37.2667 136.771 37.2667H130.597H130.51C125.553 33.7133 127.38 28.86 127.814 27.9067C129.467 26.6933 131.032 25.3933 132.423 23.8333C133.293 22.7933 134.423 22.1867 135.728 21.6667C135.554 22.5333 135.119 23.92 134.075 25.3933ZM159.032 13.1733C158.597 13.6067 158.337 14.04 158.076 14.3867C157.989 14.56 157.815 14.6467 157.641 14.56C155.032 14.3 148.684 13.8667 145.467 16.64C143.902 17.94 141.728 18.3733 139.38 18.8933C136.423 19.5 133.293 20.1067 131.206 22.62C129.467 24.6133 127.38 26.0867 125.293 27.56C123.119 29.12 121.119 30.5933 119.814 32.4133C119.64 32.5867 119.64 32.8467 119.64 33.1067C119.727 33.3667 119.814 33.54 120.075 33.7133C120.858 34.1467 122.945 35.5333 123.727 37.0933C123.727 37.18 123.727 37.18 123.727 37.2667C123.727 37.3533 123.64 37.3533 123.64 37.3533H116.51H116.423C114.771 35.88 113.901 34.2333 113.988 32.4133C114.075 28.4267 118.597 24.8733 118.597 24.7867C118.945 24.5267 119.032 23.92 118.771 23.5733C118.51 23.2267 117.901 23.14 117.553 23.4C117.379 23.5733 113.118 26.9533 112.336 31.2867C111.466 31.3733 109.901 31.5467 107.988 31.6333C107.901 31.0267 107.901 30.3333 107.988 29.9C113.901 25.3933 112.51 20.9733 112.51 20.7133C112.336 20.28 111.901 20.02 111.466 20.1933C111.031 20.3667 110.771 20.8 110.858 21.2333C110.944 21.4067 111.901 24.96 106.771 28.6867C106.597 28.7733 106.51 28.9467 106.423 29.2067C106.423 29.2933 105.901 31.2 106.597 32.8467V32.9333C106.771 33.3667 107.031 33.7133 107.379 34.06C107.727 34.4067 108.162 34.6667 108.597 34.9267C108.944 35.1 109.205 35.36 109.466 35.5333C109.988 35.9667 109.814 36.4867 109.814 36.66C109.727 37.0067 109.379 37.3533 108.857 37.3533H103.205H103.118C92.1616 30.0733 87.3789 21.84 89.7267 14.04C91.8137 7.10667 99.3791 1.73333 107.031 1.73333C117.727 1.73333 126.336 6.06667 128.771 7.36667C129.38 7.71333 130.162 7.71333 130.771 7.45333C131.727 7.02 134.423 5.89333 139.467 5.89333H146.858C146.858 6.84667 147.38 7.62667 148.249 7.97333C148.336 7.97333 148.423 8.06 148.597 8.06C148.945 8.06 149.293 7.88667 149.38 7.54C149.554 7.10667 149.38 6.58667 148.858 6.41333C148.684 6.32667 148.51 6.15333 148.51 5.98C148.51 5.72 148.771 5.46 149.032 5.46C149.293 5.46 149.467 5.63333 149.554 5.89333C149.641 6.15333 149.815 6.32667 149.989 6.5C150.076 6.5 150.163 6.58667 150.163 6.58667C150.163 6.58667 150.163 6.58667 150.25 6.58667H150.336C150.336 6.58667 152.858 6.84667 155.467 8.23333C155.554 8.32 155.641 8.40667 155.641 8.58C155.641 9.36 156.076 10.0533 156.684 10.4C157.293 10.7467 158.076 11.2667 158.945 12.0467C159.38 12.22 159.38 12.8267 159.032 13.1733Z" fill="black"/>
</svg>
