<svg width="57" height="30" viewBox="0 0 57 30" fill="none" xmlns="http://www.w3.org/2000/svg">
<path d="M56.3551 8.2C55.6183 7.46667 54.8145 7 54.3456 6.73333C54.2787 6.66667 54.2117 6.6 54.2117 6.46667C54.2117 5.86667 53.8768 5.33333 53.3409 5.06667C51.6664 4.2 49.9919 3.8 49.2551 3.66667C48.9871 3.13333 48.3843 2.73333 47.7145 2.73333C47.3126 2.73333 46.9107 2.86667 46.6428 3.13333C46.6428 3.13333 46.6428 3.13333 46.5758 3.13333H40.3466C36.3947 3.13333 34.1173 4 33.0456 4.46667C32.9117 4.53333 32.8447 4.53333 32.7107 4.46667C30.7683 3.4 23.8692 0 15.2956 0C8.86542 0 2.43523 4.6 0.693716 10.4C0.0239039 12.5333 -0.244021 15.8667 1.69843 19.7333C0.35881 21.2667 -0.244021 23.2667 0.0908853 25.2L0.760697 25.0667L0.0908853 25.2667C0.559754 28 2.97108 29.9333 5.78429 29.9333H7.45882C8.32957 29.9333 8.9324 29.5333 9.06636 28.8667C9.13334 28.5333 9.20033 28.2667 9.20033 28C9.93712 28.5333 10.7409 29.1333 11.6116 29.6667C11.8796 29.8 12.1475 29.9333 12.4154 29.9333H16.6352C17.573 29.9333 18.3767 29.4 18.6447 28.5333C18.9796 27.6667 18.7117 26.7333 17.9749 26.2C17.7069 26 17.439 25.8 17.1711 25.6667C17.1711 25.6667 17.1711 25.6 17.1041 25.6C18.0418 25.5333 18.7786 25.4667 19.3145 25.4C19.4484 27 20.1852 28.4 21.6588 29.6667C21.9268 29.8667 22.2617 30 22.5966 30H28.089C28.5579 30 29.0268 29.7333 29.2947 29.3333C29.5626 28.9333 29.5626 28.4 29.3617 27.9333C28.7588 26.6667 27.4862 25.6667 26.6154 25.1333C27.4192 24.2667 28.4239 23.4667 29.5626 22.6667C29.2277 24.6 29.4286 27.4667 32.5768 29.7333C32.8447 29.9333 33.1126 30 33.4475 30H38.2032C39.2079 30 40.0117 29.3333 40.2126 28.3333C40.4136 27.3333 39.9447 26.4667 39.007 26.0667L38.94 26C37.8683 25.5333 36.9975 24.5333 36.6626 23.3333C36.3277 22.2 36.5286 21.0667 37.1315 20.2667C38.4711 18.5333 38.739 16.8667 38.806 16.1333C39.3419 16 39.8777 15.8667 40.4136 15.8C42.289 15.4 44.2985 15 45.7051 13.8C47.8485 11.9333 52.6711 12.3333 54.0777 12.4667C54.6805 12.5333 55.2834 12.2667 55.6183 11.7333C55.7522 11.4667 56.0202 11.2 56.2881 10.9333C57.2258 10.2 57.2258 8.93333 56.3551 8.2ZM7.8607 28.6C7.8607 28.6 7.79372 28.6667 7.5258 28.6667H5.85127C3.70787 28.6667 1.8324 27.1333 1.49749 25.1333L0.827679 25.2667L1.49749 25.0667C1.29655 23.6667 1.63145 22.2667 2.50221 21.0667C3.57391 22.7333 5.04749 24.5333 7.12391 26.4C7.8607 27.0667 8.12863 27.5333 7.8607 28.6ZM36.2607 19.5333C35.39 20.6667 35.122 22.2 35.5909 23.7333C36.0598 25.3333 37.1985 26.6667 38.6051 27.2667H38.672C39.1409 27.4667 39.0739 27.9333 39.0739 28.0667C39.007 28.3333 38.806 28.6667 38.3371 28.6667H33.5815H33.5145C29.6966 25.9333 31.1032 22.2 31.4381 21.4667C32.7107 20.5333 33.9164 19.5333 34.9881 18.3333C35.6579 17.5333 36.5286 17.0667 37.5334 16.6667C37.3994 17.3333 37.0645 18.4 36.2607 19.5333ZM55.4843 10.1333C55.1494 10.4667 54.9485 10.8 54.7475 11.0667C54.6805 11.2 54.5466 11.2667 54.4126 11.2C52.4032 11 47.5136 10.6667 45.0353 12.8C43.8296 13.8 42.1551 14.1333 40.3466 14.5333C38.0692 15 35.6579 15.4667 34.0503 17.4C32.7107 18.9333 31.1032 20.0667 29.4956 21.2C27.8211 22.4 26.2805 23.5333 25.2758 24.9333C25.1418 25.0667 25.1418 25.2667 25.1418 25.4667C25.2088 25.6667 25.2758 25.8 25.4768 25.9333C26.0796 26.2667 27.6871 27.3333 28.29 28.5333C28.29 28.6 28.29 28.6 28.29 28.6667C28.29 28.7333 28.223 28.7333 28.223 28.7333H22.7305H22.6635C21.3909 27.6 20.7211 26.3333 20.7881 24.9333C20.8551 21.8667 24.3381 19.1333 24.3381 19.0667C24.606 18.8667 24.673 18.4 24.472 18.1333C24.2711 17.8667 23.8022 17.8 23.5343 18C23.4003 18.1333 20.1183 20.7333 19.5154 24.0667C18.8456 24.1333 17.64 24.2667 16.1664 24.3333C16.0994 23.8667 16.0994 23.3333 16.1664 23C20.7211 19.5333 19.6494 16.1333 19.6494 15.9333C19.5154 15.6 19.1805 15.4 18.8456 15.5333C18.5107 15.6667 18.3098 16 18.3767 16.3333C18.4437 16.4667 19.1805 19.2 15.2286 22.0667C15.0947 22.1333 15.0277 22.2667 14.9607 22.4667C14.9607 22.5333 14.5588 24 15.0947 25.2667V25.3333C15.2286 25.6667 15.4296 25.9333 15.6975 26.2C15.9654 26.4667 16.3003 26.6667 16.6352 26.8667C16.9032 27 17.1041 27.2 17.305 27.3333C17.7069 27.6667 17.573 28.0667 17.573 28.2C17.506 28.4667 17.2381 28.7333 16.8362 28.7333H12.4824H12.4154C3.97579 23.1333 0.291829 16.8 2.10032 10.8C3.70787 5.46667 9.53523 1.33333 15.4296 1.33333C23.6683 1.33333 30.2994 4.66667 32.1749 5.66667C32.6437 5.93333 33.2466 5.93333 33.7154 5.73333C34.4522 5.4 36.5286 4.53333 40.4136 4.53333H46.107C46.107 5.26667 46.5088 5.86667 47.1787 6.13333C47.2456 6.13333 47.3126 6.2 47.4466 6.2C47.7145 6.2 47.9824 6.06667 48.0494 5.8C48.1834 5.46667 48.0494 5.06667 47.6475 4.93333C47.5136 4.86667 47.3796 4.73333 47.3796 4.6C47.3796 4.4 47.5805 4.2 47.7815 4.2C47.9824 4.2 48.1164 4.33333 48.1834 4.53333C48.2504 4.73333 48.3843 4.86667 48.5183 5C48.5853 5 48.6522 5.06667 48.6522 5.06667C48.6522 5.06667 48.6522 5.06667 48.7192 5.06667H48.7862C48.7862 5.06667 50.7287 5.26667 52.7381 6.33333C52.8051 6.4 52.8721 6.46667 52.8721 6.6C52.8721 7.2 53.207 7.73333 53.6758 8C54.1447 8.26667 54.7475 8.66667 55.4173 9.26667C55.7522 9.4 55.7522 9.86667 55.4843 10.1333Z" fill="black"/>
</svg>
